mtllib ./_1.mtl
g Autocannon_Plane
v -0.9585376 -0.001446781 2.419184
v 0.9614312 -0.001446781 2.419184
v -0.9585376 -0.001446781 -0.001446781
v 0.9614312 -0.001446781 -0.001446781
v 0.001446781 0.9585376 2.419184
v 0.001446781 -0.9614312 2.419184
v 0.001446781 0.9585376 -0.001446781
v 0.001446781 -0.9614312 -0.001446781
v -0.4946217 -0.6031595 0.5451472
v -0.4946217 -0.6031595 3.73744
v 0.5710069 0.5956727 3.73744
v 0.5710069 0.5956727 0.5451472
v -0.338452 -0.001446781 -0.6169392
v -0.338452 -0.001446781 1.753166
v 0.511295 -0.006040007 1.753166
v 0.511295 -0.006040007 -0.6169392

vn 0.015871 0.9998741 0
vn 0.015871 0.9998741 0
vn 0.015871 0.9998741 0
vn 0.015871 0.9998741 0
vn 0.9998741 -0.015871 0
vn 0.9998741 -0.015871 0
vn 0.9998741 -0.015871 0
vn 0.9998741 -0.015871 0
vn -0.7141958 0.6507118 -0.257873
vn -0.7141958 0.6507118 -0.257873
vn -0.7141958 0.6507118 -0.257873
vn -0.7141958 0.6507118 -0.257873
vn 0.04761304 0.9681321 -0.2458722
vn 0.04761304 0.9681321 -0.2458722
vn 0.04761304 0.9681321 -0.2458722
vn 0.04761304 0.9681321 -0.2458722

vt 0.4850655 0.007789343
vt 0.4850655 0.9895038
vt 0.003909049 0.007789343
vt 0.003909049 0.9895038
vt 0.4850655 0.007789343
vt 0.4850655 0.9895038
vt 0.003909049 0.007789343
vt 0.003909049 0.9895038
vt 0.504467 0.007789343
vt 0.9933841 0.007789343
vt 0.9895038 0.9895038
vt 0.504467 0.9895038
vt 0.504467 0.007789343
vt 0.9933841 0.007789343
vt 0.9895038 0.9895038
vt 0.504467 0.9895038

usemtl defMat
usemap defMat
f 1/1/1 2/2/2 4/4/4
f 1/1/1 4/4/4 3/3/3
f 5/5/5 6/6/6 8/8/8
f 5/5/5 8/8/8 7/7/7
f 10/10/10 11/11/11 12/12/12
f 10/10/10 12/12/12 9/9/9
f 14/14/14 15/15/15 16/16/16
f 14/14/14 16/16/16 13/13/13
